<mxfile host="Electron" agent="Mozilla/5.0 (X11; Linux x86_64) AppleWebKit/537.36 (KHTML, like Gecko) draw.io/28.0.4 Chrome/138.0.7204.97 Electron/37.2.1 Safari/537.36" version="28.0.4">
  <diagram name="Page-1" id="z8vJLyzw1SSsMf7IVAN1">
    <mxGraphModel dx="2828" dy="1240" grid="1" gridSize="10" guides="1" tooltips="1" connect="1" arrows="1" fold="1" page="1" pageScale="1" pageWidth="850" pageHeight="1100" math="0" shadow="0">
      <root>
        <mxCell id="0" />
        <mxCell id="1" parent="0" />
        <mxCell id="Wkk6yHHU4i2QVKpF-zxj-6" style="edgeStyle=orthogonalEdgeStyle;rounded=0;orthogonalLoop=1;jettySize=auto;html=1;exitX=0.5;exitY=1;exitDx=0;exitDy=0;" parent="1" source="Wkk6yHHU4i2QVKpF-zxj-1" target="Wkk6yHHU4i2QVKpF-zxj-5" edge="1">
          <mxGeometry relative="1" as="geometry" />
        </mxCell>
        <mxCell id="Wkk6yHHU4i2QVKpF-zxj-1" value="&lt;b&gt;&lt;font style=&quot;font-size: 18px;&quot;&gt;Header&lt;/font&gt;&lt;/b&gt;&lt;div&gt;&lt;font style=&quot;font-size: 18px;&quot;&gt;(16 bytes)&lt;/font&gt;&lt;/div&gt;" style="rounded=0;whiteSpace=wrap;html=1;" parent="1" vertex="1">
          <mxGeometry x="40" y="80" width="280" height="120" as="geometry" />
        </mxCell>
        <mxCell id="Wkk6yHHU4i2QVKpF-zxj-2" value="&lt;ol&gt;&lt;li&gt;&lt;font style=&quot;font-size: 18px;&quot;&gt;&lt;b style=&quot;&quot;&gt;Signature:&lt;/b&gt; (8 bytes, uint8_t[]): FMGLFONT&lt;/font&gt;&lt;/li&gt;&lt;li&gt;&lt;font style=&quot;font-size: 18px;&quot;&gt;&lt;b&gt;Version:&lt;/b&gt; (4 bytes, uint32_t): 1&lt;/font&gt;&lt;/li&gt;&lt;li&gt;&lt;font style=&quot;font-size: 18px;&quot;&gt;&lt;b style=&quot;&quot;&gt;Characters count:&lt;/b&gt; (4 bytes, uint32_t): ex. 240&lt;/font&gt;&lt;/li&gt;&lt;/ol&gt;" style="rounded=0;whiteSpace=wrap;html=1;align=left;" parent="1" vertex="1">
          <mxGeometry x="480" y="40" width="440" height="200" as="geometry" />
        </mxCell>
        <mxCell id="Wkk6yHHU4i2QVKpF-zxj-3" value="" style="endArrow=none;html=1;rounded=0;entryX=0;entryY=0;entryDx=0;entryDy=0;exitX=1;exitY=0;exitDx=0;exitDy=0;" parent="1" source="Wkk6yHHU4i2QVKpF-zxj-1" target="Wkk6yHHU4i2QVKpF-zxj-2" edge="1">
          <mxGeometry width="50" height="50" relative="1" as="geometry">
            <mxPoint x="430" y="590" as="sourcePoint" />
            <mxPoint x="480" y="540" as="targetPoint" />
          </mxGeometry>
        </mxCell>
        <mxCell id="Wkk6yHHU4i2QVKpF-zxj-4" value="" style="endArrow=none;html=1;rounded=0;exitX=1;exitY=1;exitDx=0;exitDy=0;entryX=0;entryY=1;entryDx=0;entryDy=0;" parent="1" source="Wkk6yHHU4i2QVKpF-zxj-1" target="Wkk6yHHU4i2QVKpF-zxj-2" edge="1">
          <mxGeometry width="50" height="50" relative="1" as="geometry">
            <mxPoint x="430" y="590" as="sourcePoint" />
            <mxPoint x="480" y="540" as="targetPoint" />
          </mxGeometry>
        </mxCell>
        <mxCell id="Wkk6yHHU4i2QVKpF-zxj-12" style="edgeStyle=orthogonalEdgeStyle;rounded=0;orthogonalLoop=1;jettySize=auto;html=1;exitX=0.5;exitY=1;exitDx=0;exitDy=0;entryX=0.5;entryY=0;entryDx=0;entryDy=0;" parent="1" source="Wkk6yHHU4i2QVKpF-zxj-5" target="Wkk6yHHU4i2QVKpF-zxj-11" edge="1">
          <mxGeometry relative="1" as="geometry" />
        </mxCell>
        <mxCell id="Wkk6yHHU4i2QVKpF-zxj-5" value="&lt;div&gt;&lt;font style=&quot;font-size: 18px;&quot;&gt;&lt;b&gt;Characters table&lt;/b&gt;&lt;/font&gt;&lt;/div&gt;&lt;div&gt;&lt;span style=&quot;font-size: 18px;&quot;&gt;CharacterTableItem[CharactersCount]&lt;/span&gt;&lt;/div&gt;&lt;div&gt;&lt;span style=&quot;font-size: 18px;&quot;&gt;8 bytes x CharactersCount&lt;/span&gt;&lt;/div&gt;" style="rounded=0;whiteSpace=wrap;html=1;" parent="1" vertex="1">
          <mxGeometry y="320" width="360" height="120" as="geometry" />
        </mxCell>
        <mxCell id="Wkk6yHHU4i2QVKpF-zxj-7" value="&lt;ol&gt;&lt;li&gt;&lt;span style=&quot;font-size: 18px;&quot;&gt;&lt;b&gt;Character code:&lt;/b&gt;&amp;nbsp;(4 bytes, uint32_t)&lt;/span&gt;&lt;/li&gt;&lt;li&gt;&lt;span style=&quot;font-size: 18px;&quot;&gt;&lt;b&gt;Character data offset from beginning of file:&lt;/b&gt; (4 bytes, uint32_t)&lt;/span&gt;&lt;/li&gt;&lt;/ol&gt;" style="rounded=0;whiteSpace=wrap;html=1;align=left;" parent="1" vertex="1">
          <mxGeometry x="480" y="280" width="520" height="200" as="geometry" />
        </mxCell>
        <mxCell id="Wkk6yHHU4i2QVKpF-zxj-8" value="&lt;b&gt;CharacterTableItem&lt;/b&gt;&lt;div&gt;&lt;b&gt;8 bytes total&lt;/b&gt;&lt;/div&gt;" style="text;html=1;align=center;verticalAlign=middle;whiteSpace=wrap;rounded=0;" parent="1" vertex="1">
          <mxGeometry x="490" y="290" width="120" height="30" as="geometry" />
        </mxCell>
        <mxCell id="Wkk6yHHU4i2QVKpF-zxj-9" value="" style="endArrow=none;html=1;rounded=0;entryX=0;entryY=0;entryDx=0;entryDy=0;exitX=1;exitY=0;exitDx=0;exitDy=0;" parent="1" source="Wkk6yHHU4i2QVKpF-zxj-5" target="Wkk6yHHU4i2QVKpF-zxj-7" edge="1">
          <mxGeometry width="50" height="50" relative="1" as="geometry">
            <mxPoint x="430" y="570" as="sourcePoint" />
            <mxPoint x="480" y="520" as="targetPoint" />
          </mxGeometry>
        </mxCell>
        <mxCell id="Wkk6yHHU4i2QVKpF-zxj-10" value="" style="endArrow=none;html=1;rounded=0;exitX=1;exitY=1;exitDx=0;exitDy=0;entryX=0;entryY=1;entryDx=0;entryDy=0;" parent="1" source="Wkk6yHHU4i2QVKpF-zxj-5" target="Wkk6yHHU4i2QVKpF-zxj-7" edge="1">
          <mxGeometry width="50" height="50" relative="1" as="geometry">
            <mxPoint x="430" y="570" as="sourcePoint" />
            <mxPoint x="480" y="520" as="targetPoint" />
          </mxGeometry>
        </mxCell>
        <mxCell id="Wkk6yHHU4i2QVKpF-zxj-11" value="&lt;div&gt;&lt;font style=&quot;font-size: 18px;&quot;&gt;&lt;b&gt;Characters&lt;/b&gt;&lt;/font&gt;&lt;/div&gt;&lt;div&gt;&lt;span style=&quot;font-size: 18px; background-color: transparent; color: light-dark(rgb(0, 0, 0), rgb(255, 255, 255));&quot;&gt;Character[CharactersCount]&lt;/span&gt;&lt;/div&gt;" style="rounded=0;whiteSpace=wrap;html=1;" parent="1" vertex="1">
          <mxGeometry y="560" width="360" height="120" as="geometry" />
        </mxCell>
        <mxCell id="Wkk6yHHU4i2QVKpF-zxj-13" value="&lt;ol&gt;&lt;li&gt;&lt;span style=&quot;font-size: 18px;&quot;&gt;&lt;b&gt;Width:&lt;/b&gt;&amp;nbsp;(4 bytes, uint32_t)&lt;/span&gt;&lt;/li&gt;&lt;li&gt;&lt;span style=&quot;font-size: 18px;&quot;&gt;&lt;b&gt;Height:&lt;/b&gt; (4 bytes, uint32_t)&lt;/span&gt;&lt;/li&gt;&lt;li&gt;&lt;span style=&quot;font-size: 18px;&quot;&gt;&lt;b&gt;Raster size:&lt;/b&gt; (4 bytes, uint32_t)&lt;/span&gt;&lt;/li&gt;&lt;li&gt;&lt;span style=&quot;font-size: 18px;&quot;&gt;&lt;b&gt;Raster:&lt;/b&gt;&amp;nbsp;(raster size bytes, uint8_t[], XBM-format)&lt;/span&gt;&lt;/li&gt;&lt;/ol&gt;" style="rounded=0;whiteSpace=wrap;html=1;align=left;" parent="1" vertex="1">
          <mxGeometry x="480" y="520" width="480" height="200" as="geometry" />
        </mxCell>
        <mxCell id="Wkk6yHHU4i2QVKpF-zxj-15" value="" style="endArrow=none;html=1;rounded=0;entryX=0;entryY=0;entryDx=0;entryDy=0;exitX=1;exitY=0;exitDx=0;exitDy=0;" parent="1" source="Wkk6yHHU4i2QVKpF-zxj-11" target="Wkk6yHHU4i2QVKpF-zxj-13" edge="1">
          <mxGeometry width="50" height="50" relative="1" as="geometry">
            <mxPoint x="380" y="580" as="sourcePoint" />
            <mxPoint x="410" y="510" as="targetPoint" />
          </mxGeometry>
        </mxCell>
        <mxCell id="Wkk6yHHU4i2QVKpF-zxj-16" value="" style="endArrow=none;html=1;rounded=0;exitX=1;exitY=1;exitDx=0;exitDy=0;entryX=0;entryY=1;entryDx=0;entryDy=0;" parent="1" source="Wkk6yHHU4i2QVKpF-zxj-11" target="Wkk6yHHU4i2QVKpF-zxj-13" edge="1">
          <mxGeometry width="50" height="50" relative="1" as="geometry">
            <mxPoint x="390" y="660" as="sourcePoint" />
            <mxPoint x="440" y="610" as="targetPoint" />
          </mxGeometry>
        </mxCell>
        <mxCell id="Wkk6yHHU4i2QVKpF-zxj-18" value="" style="endArrow=classic;html=1;rounded=0;exitX=1;exitY=0.5;exitDx=0;exitDy=0;entryX=1;entryY=0;entryDx=0;entryDy=0;" parent="1" source="Wkk6yHHU4i2QVKpF-zxj-7" target="Wkk6yHHU4i2QVKpF-zxj-13" edge="1">
          <mxGeometry width="50" height="50" relative="1" as="geometry">
            <mxPoint x="430" y="570" as="sourcePoint" />
            <mxPoint x="480" y="520" as="targetPoint" />
            <Array as="points">
              <mxPoint x="1040" y="380" />
              <mxPoint x="1040" y="520" />
            </Array>
          </mxGeometry>
        </mxCell>
        <mxCell id="Wkk6yHHU4i2QVKpF-zxj-19" value="&lt;b&gt;Character&lt;/b&gt;&lt;div&gt;&lt;b&gt;12 + raster size bytes total&lt;/b&gt;&lt;/div&gt;" style="text;html=1;align=center;verticalAlign=middle;whiteSpace=wrap;rounded=0;" parent="1" vertex="1">
          <mxGeometry x="500" y="530" width="120" height="50" as="geometry" />
        </mxCell>
        <mxCell id="Ahfez4N5RPb9TojO1y-S-1" value="Note: Character with code 0 is always present and located first. This character have special meaning of wrong character code" style="text;html=1;align=center;verticalAlign=middle;whiteSpace=wrap;rounded=0;" vertex="1" parent="1">
          <mxGeometry x="-190" y="250" width="260" height="50" as="geometry" />
        </mxCell>
      </root>
    </mxGraphModel>
  </diagram>
</mxfile>
